<?xml version="1.0" encoding="UTF-8" standalone="no"?>
<svg
   xmlns:dc="http://purl.org/dc/elements/1.1/"
   xmlns:cc="http://creativecommons.org/ns#"
   xmlns:rdf="http://www.w3.org/1999/02/22-rdf-syntax-ns#"
   xmlns:svg="http://www.w3.org/2000/svg"
   xmlns="http://www.w3.org/2000/svg"
   xmlns:sodipodi="http://sodipodi.sourceforge.net/DTD/sodipodi-0.dtd"
   xmlns:inkscape="http://www.inkscape.org/namespaces/inkscape"
   width="210mm"
   height="297mm"
   viewBox="0 0 210 297"
   version="1.1"
   id="svg8"
   inkscape:version="1.0.1 (3bc2e813f5, 2020-09-07)"
   sodipodi:docname="logo.svg">
  <defs
     id="defs2" />
  <sodipodi:namedview
     id="base"
     pagecolor="#ffffff"
     bordercolor="#666666"
     borderopacity="1.0"
     inkscape:pageopacity="0.0"
     inkscape:pageshadow="2"
     inkscape:zoom="0.35"
     inkscape:cx="400"
     inkscape:cy="560"
     inkscape:document-units="mm"
     inkscape:current-layer="layer1"
     inkscape:document-rotation="0"
     showgrid="false"
     inkscape:window-width="1350"
     inkscape:window-height="728"
     inkscape:window-x="0"
     inkscape:window-y="0"
     inkscape:window-maximized="0" />
  <metadata
     id="metadata5">
    <rdf:RDF>
      <cc:Work
         rdf:about="">
        <dc:format>image/svg+xml</dc:format>
        <dc:type
           rdf:resource="http://purl.org/dc/dcmitype/StillImage" />
        <dc:title></dc:title>
      </cc:Work>
    </rdf:RDF>
  </metadata>
  <g
     inkscape:label="Layer 1"
     inkscape:groupmode="layer"
     id="layer1">
    <path
       style="fill:#fb9109;stroke-width:0.0846667;fill-opacity:1"
       d="m 97.339141,264.44638 c -0.469792,-0.16738 -0.780679,-0.44001 -1.029975,-0.90324 -0.164302,-0.3053 -0.182172,-0.46797 -0.181366,-1.651 6.77e-4,-0.94654 0.04387,-1.51294 0.155072,-2.032 0.264033,-1.23244 0.824461,-2.78686 1.457604,-4.04284 0.33451,-0.66357 0.59194,-1.2065 0.572065,-1.2065 -0.01988,0 -0.424524,0.16709 -0.89922,0.37128 -4.02183,1.73013 -8.419145,1.84366 -11.650814,0.3008 -2.279499,-1.08828 -4.014697,-2.75412 -5.071331,-4.86865 -0.776488,-1.55391 -1.486663,-4.48144 -1.717499,-7.08 -0.120876,-1.36072 -0.05391,-3.89562 0.135386,-5.12479 0.160874,-1.04461 0.597387,-2.66864 1.022015,-3.80236 1.5114,-4.03531 4.74584,-8.02004 9.180161,-11.30966 6.792405,-5.03898 17.529411,-9.06848 32.342671,-12.13791 2.31831,-0.48038 5.5353,-1.08625 11.43767,-2.15413 6.00716,-1.08684 6.95594,-1.27806 8.87098,-1.78787 7.07269,-1.88286 12.55314,-4.50129 18.38401,-8.78349 4.29205,-3.15208 7.98045,-6.82445 10.59828,-10.55221 3.62969,-5.16867 5.60472,-9.73271 6.63153,-15.32467 0.631,-3.43641 0.81114,-8.01299 0.42656,-10.83733 -0.53338,-3.91712 -2.0657,-6.56176 -4.4907,-7.75058 -2.16876,-1.06319 -5.23533,-1.19487 -8.55134,-0.3672 l -0.84666,0.21132 -0.62086,0.65123 c -1.60601,1.68459 -2.42774,2.52702 -4.8058,4.92689 -4.04985,4.08698 -8.77445,8.69883 -10.36368,10.11635 -0.30268,0.26997 -0.89323,0.82198 -1.31233,1.22667 -1.06527,1.02864 -5.8842,5.41535 -8.84766,8.0541 -2.84192,2.53052 -7.78222,6.82129 -10.795,9.37571 -0.4191,0.35534 -0.78105,0.66846 -0.80434,0.69584 -0.0636,0.0748 -4.88851,4.15091 -6.05366,5.11421 -0.5588,0.46198 -1.03505,0.86315 -1.05834,0.89148 -0.0233,0.0283 -0.61383,0.52528 -1.31233,1.10436 -0.6985,0.57907 -1.36525,1.13503 -1.48167,1.23546 -0.31679,0.27332 -2.71923,2.27468 -3.54945,2.95691 -0.39942,0.32821 -1.37008,1.13632 -2.15702,1.79579 -0.78695,0.65946 -1.60279,1.27986 -1.81299,1.37867 -0.84057,0.39511 -1.91084,0.37887 -2.7632,-0.042 -0.23522,-0.11613 -1.13252,-0.80759 -1.994,-1.53659 -0.86149,-0.729 -2.34739,-1.97774 -3.30201,-2.77498 -0.95461,-0.79723 -2.139795,-1.79246 -2.633735,-2.21161 -0.493941,-0.41914 -1.193258,-1.00691 -1.554038,-1.30616 -0.36078,-0.29925 -0.699596,-0.5863 -0.752926,-0.63789 -0.05333,-0.0516 -0.706562,-0.60597 -1.451629,-1.23196 -1.872174,-1.57297 -5.221534,-4.43283 -6.392333,-5.45812 -0.535516,-0.46896 -1.107016,-0.96073 -1.269999,-1.09282 -0.162984,-0.13208 -0.467784,-0.39888 -0.677334,-0.59287 -0.20955,-0.19401 -1.00965,-0.90316 -1.778,-1.5759 -2.035064,-1.78183 -5.060061,-4.48742 -6.484293,-5.79963 -0.05058,-0.0466 -0.468588,-0.42762 -0.928909,-0.84672 -1.563795,-1.42376 -3.376701,-3.12476 -5.412601,-5.0785 -2.76675,-2.65508 -19.46456,-19.3505 -21.29823,-21.29517 -0.81231,-0.86148 -1.85824,-1.96715 -2.32428,-2.45703 -0.46604,-0.48987 -1.0188,-1.08079 -1.22835,-1.31314 -1.203351,-1.33431 -2.556091,-2.87068 -3.429001,-3.89447 -0.23283,-0.27307 -0.69003,-0.80806 -1.016,-1.18887 -8.01332,-9.36133 -14.48395,-19.23196 -18.28429,-27.89182 -0.35763,-0.81492 -0.70122,-1.59597 -0.76354,-1.73567 -0.24419,-0.54737 -1.3977,-3.69734 -1.72077,-4.699 -2.35489,-7.30138 -3.21087,-15.063027 -2.33901,-21.208997 0.57782,-4.07316 2.18484,-8.530617 4.4413,-12.318998 1.11679,-1.874977 2.45949,-3.790543 3.58911,-5.120407 0.23643,-0.278341 0.50607,-0.599944 0.5992,-0.714674 0.42841,-0.527754 1.27789,-1.422081 2.45941,-2.589252 l 1.28561,-1.27 -0.5377,-0.973667 c -1.79064,-3.242484 -3.03261,-7.730029 -3.69061,-13.334999 -0.16655,-1.418742 -0.14252,-6.368722 0.0382,-7.874 0.4912,-4.090734 1.46323,-7.336517 3.0414,-10.155773 0.28544,-0.509908 0.55025,-0.967108 0.58846,-1.016 1.75854,-2.249635 3.01908,-3.326787 5.12673,-4.380876 0.94222,-0.47123 1.48833,-0.581763 2.01521,-0.407879 0.66412,0.219182 1.2244,0.958082 1.22841,1.62005 0.003,0.49143 -0.18243,0.890644 -0.97815,2.106145 -1.29003,1.970584 -1.89889,3.280358 -2.18899,4.7089 -0.67398,3.318936 0.14585,7.613036 2.26646,11.871302 1.19394,2.397486 2.27111,3.93737 4.21513,6.025797 0.90846,0.975944 1.47039,1.466603 2.72696,2.381077 l 0.83255,0.605892 1.622791,-0.638568 c 0.89252,-0.351211 1.76565,-0.699941 1.94028,-0.774953 0.17462,-0.07501 0.3175,-0.104787 0.3175,-0.06616 0,0.03862 -0.21908,0.159267 -0.48684,0.268099 -0.89402,0.363381 -2.94119,1.285574 -3.0178,1.359433 -0.0433,0.04172 0.0926,0.15464 0.3175,0.263925 0.21622,0.10505 0.39314,0.220313 0.39314,0.256139 0,0.0877 -0.22971,-0.0027 -0.61215,-0.240862 -0.1737,-0.108177 -0.331741,-0.196685 -0.351191,-0.196685 -0.091,0 -4.37572,2.122278 -5.63841,2.792802 -2.38775,1.267969 -6.16378,3.524415 -6.42538,3.839627 -0.063,0.07589 -0.0469,0.169296 0.0559,0.325445 l 0.14423,0.219009 0.55033,-0.419314 c 1.80356,-1.374175 4.87235,-3.437447 4.96896,-3.340832 0.0366,0.03655 -0.56099,0.47023 -2.44134,1.771868 -2.31292,1.601078 -2.91173,2.029878 -2.93847,2.10421 -0.0376,0.104422 0.23484,0.411851 0.36494,0.411851 0.0867,0 1.06702,-0.647759 4.17649,-2.759715 0.52556,-0.356965 0.97399,-0.630606 0.99651,-0.60809 0.0442,0.04424 -1.19377,0.915664 -3.47447,2.445656 -0.79075,0.530466 -1.47623,0.991471 -1.52329,1.024457 -0.0565,0.03961 -0.0528,0.09278 0.0111,0.156595 0.0724,0.07238 0.28759,-0.04355 0.85789,-0.462141 0.41871,-0.307319 0.78634,-0.558762 0.81696,-0.558762 0.0306,0 0.40057,-0.24765 0.8221,-0.550333 0.68904,-0.494764 0.91868,-0.623336 0.91868,-0.514359 0,0.05055 -2.48106,1.90323 -3.06339,2.287526 -0.34214,0.22579 -0.46637,0.35571 -0.43022,0.449922 0.0384,0.100002 0.009,0.121624 -0.1183,0.08823 -0.093,-0.02433 -0.23748,0.0057 -0.32102,0.06683 -0.14177,0.103669 -0.13788,0.114578 0.0585,0.16387 0.16746,0.04203 0.51954,-0.132423 1.72491,-0.854659 0.83297,-0.499108 1.83708,-1.121045 2.23134,-1.382084 0.39426,-0.261039 0.78513,-0.512716 0.86859,-0.559282 0.0835,-0.04657 0.50384,-0.29856 0.93416,-0.559985 1.98037,-1.203083 4.26903,-2.337819 6.484641,-3.215138 0.58911,-0.233266 1.16635,-0.465522 1.28277,-0.516124 l 0.21167,-0.092 -0.29634,-0.125579 c -0.18398,-0.07797 -0.52905,-0.120559 -0.91016,-0.112339 -0.65296,0.01408 -0.835741,-0.113198 -0.30542,-0.212686 l 0.30841,-0.05786 -0.19173,-0.144625 c -0.17113,-0.129081 -0.17615,-0.150606 -0.0468,-0.200252 0.0797,-0.0306 0.25336,0.0084 0.38584,0.08667 0.22577,0.13336 0.29042,0.133234 1.02953,-0.002 0.43375,-0.07937 2.16024,-0.372043 3.83664,-0.650386 1.6764,-0.278343 3.49409,-0.582114 4.0393,-0.675048 1.02499,-0.174712 1.77209,-0.225844 1.1677,-0.07992 -0.16298,0.03935 -0.92498,0.189975 -1.69333,0.334721 -1.31414,0.247563 -4.05693,0.895598 -4.13932,0.977993 -0.0761,0.07608 0.42388,0.0259 5.46889,-0.548883 2.83109,-0.322551 5.57994,-0.632716 6.10856,-0.689257 1.22667,-0.131205 5.49012,-0.05807 7.54787,0.129484 6.136811,0.559327 11.184953,1.896403 15.790328,4.182304 1.300303,0.645412 3.429234,1.905017 4.147601,2.453974 3.6164,2.763555 8.153877,7.202134 11.525148,11.273948 1.75014,2.113815 3.48576,4.702796 4.45562,6.646338 0.41049,0.8226 0.91191,2.119447 0.9082,2.348927 -0.003,0.16367 -0.0674,0.12288 -0.4515,-0.28451 -0.33294,-0.35309 -0.54178,-0.69106 -0.81092,-1.312327 -1.06284,-2.453389 -2.80743,-5.186234 -4.8837,-7.650171 -0.36655,-0.434991 -0.79047,-0.942913 -0.94206,-1.128715 -0.82035,-1.005528 -4.024422,-4.241761 -5.566389,-5.62226 -0.870297,-0.779162 -2.686793,-2.305558 -3.567134,-2.99745 -2.276468,-1.789161 -5.656844,-3.530397 -9.259865,-4.769769 -3.238277,-1.113907 -6.548216,-1.750882 -10.879669,-2.093719 -0.78338,-0.06201 -2.81859,-0.108231 -4.826,-0.109615 -3.70895,-0.0026 -4.64348,0.05909 -7.83166,0.51663 -8.10366,1.162959 -14.806001,3.995296 -21.212521,8.964183 -0.6453,0.500492 -0.90026,0.705843 -1.81681,1.463286 -0.71647,0.592086 -2.82533,2.750976 -3.75725,3.846382 -3.59815,4.229337 -6.20245,9.471808 -7.11991,14.332455 -0.42593,2.25651 -0.59694,4.85574 -0.46513,7.06967 0.36703,6.16499 1.57812,11.402477 3.98409,17.229657 0.45396,1.09948 0.65323,1.55486 1.37081,3.13267 3.49119,7.6764 9.98074,17.29849 17.581061,26.06753 0.39893,0.46028 0.85867,0.99898 1.02166,1.19713 1.02193,1.2424 4.33767,4.85504 6.477,7.05695 0.60536,0.62308 1.13876,1.17778 1.18533,1.23265 0.53659,0.63233 8.02646,8.07244 10.58333,10.51302 4.40143,4.20122 10.838068,10.08323 15.409335,14.08154 0.605367,0.52949 1.538817,1.34999 2.074333,1.82334 1.27368,1.12581 9.48148,8.16717 11.599333,9.95092 0.90805,0.7648 1.67005,1.41409 1.693333,1.44287 0.02328,0.0288 0.270933,0.23696 0.550333,0.46261 0.2794,0.22566 1.0033,0.83394 1.608667,1.35176 0.605363,0.51781 1.691213,1.43361 2.413003,2.03512 0.72178,0.60151 1.57903,1.31958 1.90499,1.59573 0.32597,0.27614 0.98972,0.8303 1.47501,1.23145 0.48528,0.40116 1.24573,1.04286 1.68989,1.42599 0.79524,0.686 0.81018,0.69423 0.98033,0.54066 0.18445,-0.16649 0.60037,-0.51125 3.89302,-3.22694 1.15743,-0.95461 4.33716,-3.60277 7.06608,-5.88479 2.72892,-2.28201 5.17136,-4.32036 5.42764,-4.52967 0.78955,-0.6448 4.45753,-3.76565 5.4607,-4.64615 0.1397,-0.12262 0.61484,-0.52747 1.05587,-0.89966 0.82993,-0.70041 4.06032,-3.51315 6.35246,-5.53119 0.72179,-0.63548 1.44392,-1.27004 1.60475,-1.41013 0.16083,-0.14011 0.54511,-0.48334 0.85395,-0.76274 0.30884,-0.2794 1.05163,-0.94615 1.65066,-1.48167 0.59903,-0.53551 1.58821,-1.43086 2.19819,-1.98966 0.60998,-0.5588 1.52515,-1.397 2.03373,-1.86267 1.00997,-0.92477 1.89257,-1.74654 3.00396,-2.79691 0.39587,-0.37414 1.04286,-0.98374 1.43775,-1.35467 3.49402,-3.28201 10.08421,-9.84711 13.51374,-13.46228 2.43922,-2.57126 6.35068,-7.03615 8.37863,-9.56414 0.22413,-0.2794 0.71878,-0.889 1.09921,-1.35467 2.5297,-3.09646 6.07623,-8.1041 8.6047,-12.14966 1.98947,-3.18317 4.09407,-7.17827 5.57526,-10.58334 0.59667,-1.37167 0.68735,-1.5958 1.3703,-3.38666 1.36635,-3.58293 2.43209,-7.96136 2.85465,-11.727907 0.44494,-3.966 0.45731,-6.49682 0.0457,-9.35064 -0.76839,-5.32782 -3.36342,-10.85527 -7.19626,-15.328115 -2.61566,-3.052417 -5.78748,-5.645548 -10.07195,-8.23436 -1.35294,-0.817487 -4.47214,-2.368932 -5.842,-2.905726 -6.16513,-2.415869 -13.13163,-3.542215 -20.19752,-3.265546 -8.0292,0.314387 -13.03563,1.441947 -18.45281,4.155979 -2.60389,1.304563 -3.30983,1.73638 -5.24933,3.210976 -2.08338,1.583985 -3.34071,2.674802 -5.08742,4.413663 -2.66503,2.653062 -4.91051,5.384055 -7.41424,9.017348 -0.83985,1.218744 -2.47973,3.720631 -2.98579,4.555281 -0.10736,0.17708 -0.21557,0.30159 -0.24045,0.2767 -0.0249,-0.0249 0.0498,-0.18882 0.16598,-0.36428 0.11618,-0.17547 0.33928,-0.52859 0.49579,-0.7847 0.57363,-0.938727 2.90504,-4.44002 3.56934,-5.360412 1.53925,-2.13264 3.10715,-4.067262 4.54621,-5.60954 0.30704,-0.329056 0.65349,-0.705281 0.76991,-0.836055 0.20835,-0.23404 0.20549,-0.233458 -0.18196,0.03706 -0.52189,0.36439 -0.65653,0.274703 -0.36009,-0.239874 0.56125,-0.974263 2.20623,-2.761948 4.26738,-4.637584 2.00394,-1.823576 4.98141,-3.797722 7.9157,-5.248349 0.79129,-0.391186 1.40862,-0.711248 1.37185,-0.711248 -0.0368,0 -0.56587,0.153224 -1.1758,0.340497 -0.60994,0.187273 -1.12632,0.323158 -1.14751,0.301966 -0.0925,-0.09251 0.1143,-0.219992 0.97088,-0.598475 0.50191,-0.221765 1.02685,-0.454715 1.16655,-0.517668 0.45839,-0.206563 2.77384,-1.025921 3.76767,-1.333247 2.52527,-0.780906 5.57351,-1.416492 8.38199,-1.747724 4.23479,-0.499451 9.69372,-0.549073 13.61825,-0.123791 1.4788,0.160251 1.6497,0.146494 0.77509,-0.06239 -0.75868,-0.181195 -1.04446,-0.323167 -0.65051,-0.323167 0.29546,0 4.01273,0.635213 5.01084,0.856258 1.13152,0.250591 2.67846,0.644333 3.683,0.937434 0.48895,0.142663 0.99877,0.257051 1.13293,0.254196 0.13417,-0.0029 0.52569,-0.142582 0.87005,-0.310501 0.57775,-0.281723 0.87139,-0.327261 0.74007,-0.11477 -0.0296,0.0478 -0.31162,0.210509 -0.62682,0.361566 l -0.5731,0.274649 0.60427,0.19256 c 0.88875,0.283216 2.84049,1.028691 3.90627,1.492011 1.12693,0.489906 3.72706,1.807005 4.64911,2.355015 0.36838,0.218941 0.62089,0.339164 0.56114,0.267162 -0.0598,-0.072 -0.0828,-0.130913 -0.0511,-0.130913 0.0575,0 0.85198,0.540495 1.57185,1.069327 0.20955,0.153942 0.5334,0.391761 0.71966,0.528486 0.58174,0.427007 0.92585,0.600732 1.04459,0.527349 0.12819,-0.07923 -0.0725,-0.227797 -2.73792,-2.027241 -0.9779,-0.66018 -1.8923,-1.297835 -2.032,-1.417014 l -0.254,-0.216686 0.343,0.196389 c 0.18866,0.108014 1.25545,0.817282 2.37067,1.576151 1.11522,0.758868 2.14719,1.455209 2.29326,1.547424 l 0.26561,0.167665 0.32288,-0.446759 c 0.77272,-1.069207 1.69892,-3.141746 2.37524,-5.315091 0.89228,-2.867293 1.63952,-6.894236 1.63866,-8.830837 0,-0.828738 -0.33858,-4.785819 -0.54778,-6.409163 -0.36684,-2.846528 -1.18491,-6.016919 -1.98806,-7.704667 -0.14404,-0.302683 -0.24514,-0.488942 -0.22468,-0.413909 0.0205,0.07503 0.0631,0.608433 0.0947,1.185333 0.0435,0.793492 0.0239,1.25508 -0.0804,1.895576 -0.46841,2.875322 -1.18773,5.060768 -2.54847,7.742804 -0.94107,1.854826 -2.51808,4.491529 -2.68639,4.491529 -0.0373,0 -0.0271,-0.0762 0.0228,-0.169333 0.17924,-0.334905 0,-0.159727 -0.32528,0.3175 -0.75757,1.11225 -3.65522,4.293327 -3.72369,4.087907 -0.017,-0.05107 0.1536,-0.310697 0.37918,-0.576959 l 0.41012,-0.484115 -0.635,0.57091 c -0.90223,0.811171 -1.55749,1.287289 -2.27359,1.652 -0.56159,0.286022 -0.63159,0.303323 -0.71441,0.176572 -0.0822,-0.125813 -0.1411,-0.107311 -0.56274,0.176804 -0.71133,0.479319 -1.27526,0.793043 -1.27526,0.70946 0,-0.04107 0.23878,-0.212011 0.53062,-0.379862 0.29184,-0.167852 0.84451,-0.537916 1.22814,-0.822367 0.38364,-0.284451 0.73162,-0.517183 0.77329,-0.517183 0.10864,0 2.52345,-2.395108 3.0656,-3.040586 0.69174,-0.823561 1.87596,-2.418251 2.06304,-2.778105 0.0914,-0.175803 0.25964,-0.472043 0.37388,-0.658309 0.37063,-0.604311 1.34071,-2.602899 1.68493,-3.471334 0.7834,-1.976436 1.27712,-3.87589 1.49779,-5.76236 0.16254,-1.389446 0.16148,-2.162407 -0.005,-3.352874 -0.25523,-1.829968 -0.82751,-3.201654 -2.21942,-5.319633 -0.94229,-1.433814 -1.05654,-1.676311 -1.05785,-2.245297 -0.002,-0.991298 0.7636,-1.734835 1.78693,-1.734835 0.33462,0 0.60841,0.09564 1.42089,0.496342 3.06439,1.511314 5.01914,3.613899 6.58651,7.084659 0.6175,1.367379 1.00211,2.50201 1.40099,4.13302 0.69855,2.856269 0.9635,5.171235 0.96564,8.436645 0.002,3.717618 -0.42482,6.954445 -1.42544,10.799391 -0.88516,3.401244 -2.30492,6.608842 -3.6172,8.172176 l -0.48257,0.574885 0.73657,0.650214 c 3.85369,3.40189 6.83439,7.216892 8.86135,11.341667 2.32799,4.737348 3.28548,8.651578 3.40693,13.927658 0.22544,9.792907 -2.71537,20.161127 -8.80133,31.030337 -4.12952,7.37511 -8.60413,13.6707 -15.55064,21.87913 -1.19352,1.41035 -2.5672,2.99178 -2.80092,3.22453 -0.0234,0.0233 -0.55372,0.60876 -1.17854,1.30105 -0.98468,1.09103 -1.10309,1.25198 -0.88882,1.20813 0.81766,-0.16732 1.50786,-0.23808 2.7872,-0.28571 l 1.43934,-0.0536 -0.61136,-0.0947 c -0.89986,-0.13935 -0.8643,-0.24398 0.061,-0.17952 2.41147,0.16798 4.34889,0.77445 5.82377,1.82303 2.18929,1.55648 3.57104,3.63693 4.46998,6.73026 0.68064,2.34217 0.96349,4.33774 1.02706,7.24637 0.2043,9.34803 -1.91752,16.55954 -7.19934,24.46866 -2.09613,3.13879 -5.34659,6.75593 -8.48223,9.43911 -0.32573,0.27873 -0.61129,0.52793 -0.63457,0.55379 -0.14817,0.16453 -2.00548,1.63305 -2.96333,2.34301 -2.20813,1.63666 -4.34013,3.0266 -6.18067,4.02942 -0.25612,0.13955 -0.50377,0.28275 -0.55033,0.31821 -0.0466,0.0355 -0.77047,0.4071 -1.60867,0.82582 -3.68821,1.84246 -7.81319,3.32602 -12.16218,4.37413 -3.00446,0.72409 -8.97159,1.68834 -15.7331,2.54237 -5.20185,0.65704 -6.09905,0.81085 -9.14638,1.56795 -6.32146,1.57057 -12.38995,3.5502 -16.42533,5.3582 -3.16738,1.4191 -4.982165,2.39158 -7.154336,3.83377 -5.443358,3.61407 -8.862021,7.99635 -9.770008,12.52389 -0.509872,2.54239 -0.428209,5.13856 0.25656,8.1564 0.140907,0.62099 0.234948,1.15032 0.208981,1.17629 -0.02597,0.026 -0.06508,-0.006 -0.08691,-0.0707 -0.588862,-1.74961 -0.896497,-3.71217 -0.894069,-5.70373 0.0042,-3.46606 1.040452,-6.83348 2.994936,-9.73261 0.964745,-1.43102 1.721671,-2.32653 3.204881,-3.79162 1.928495,-1.90493 3.909624,-3.43685 6.329298,-4.89416 0.48895,-0.29448 0.927099,-0.5718 0.973666,-0.61626 0.157469,-0.15035 -3.330879,1.64172 -3.868876,1.98755 -1.301625,0.83671 -3.430774,2.70971 -4.793408,4.21674 -2.454718,2.71482 -3.788361,5.04387 -4.633904,8.09252 -0.302114,1.08929 -0.304132,1.10788 -0.389934,3.59262 -0.04744,1.37371 -0.104701,2.55481 -0.127255,2.62466 -0.242172,0.74999 -0.355601,-3.38184 -0.127838,-4.65666 0.84973,-4.75607 3.29552,-8.57048 8.141549,-12.69744 0.116417,-0.0991 -0.131233,0.0352 -0.550333,0.29852 -2.571351,1.61564 -4.044737,3.15279 -5.797958,6.04892 -1.489847,2.46105 -2.210129,4.42403 -2.671772,7.28133 -0.169281,1.04775 -0.342618,1.9412 -0.385193,1.98543 -0.04757,0.0494 -0.07741,-0.001 -0.07741,-0.13185 0,-0.43102 0.350204,-3.0409 0.599323,-4.46643 0.141277,-0.80842 0.240006,-1.48671 0.2194,-1.50732 -0.04939,-0.0494 -0.498675,1.20035 -0.72028,2.0035 -0.400488,1.45149 -0.474337,2.13432 -0.476146,4.40267 -0.0015,1.87251 0.02385,2.30505 0.190978,3.25967 0.404598,2.31099 0.847939,3.71095 1.548758,4.89061 0.190609,0.32084 0.328194,0.60171 0.305744,0.62417 -0.125046,0.12504 -1.082135,-1.78148 -1.418322,-2.82531 -0.108281,-0.3362 -0.212989,-0.59516 -0.232685,-0.57546 -0.0197,0.0197 0.02951,0.32942 0.109348,0.68827 0.708411,3.18417 2.995536,5.72191 6.088071,6.75518 1.343313,0.44883 2.248622,0.58593 3.903477,0.59118 0.853083,0.003 1.822186,-0.0428 2.201333,-0.10337 2.314602,-0.36973 5.208013,-1.44965 5.926666,-2.21202 0.243543,-0.25835 0.290891,-0.34493 0.168572,-0.3082 -1.8671,0.56059 -4.709442,0.68882 -7.619238,0.34373 -1.135966,-0.13472 -2.414569,-0.34913 -2.481581,-0.41614 -0.02097,-0.021 0.204955,-0.0417 0.502059,-0.0461 1.391463,-0.0204 1.668597,-0.038 1.628188,-0.10341 -0.0239,-0.0387 0.197779,-0.0467 0.492611,-0.0179 0.80283,0.0784 3.378602,-0.099 4.383134,-0.3019 2.232909,-0.45102 4.217893,-1.34469 5.447953,-2.45276 0.22276,-0.20068 0.65101,-0.66217 0.95164,-1.02555 0.63512,-0.76768 0.94251,-0.89876 1.45742,-0.62146 0.57455,0.30942 0.67926,1.03605 0.26381,1.83081 -0.10512,0.2011 -0.18451,0.39094 -0.17642,0.42189 0.0161,0.0615 -0.86754,1.04009 -1.55858,1.72619 -0.23931,0.23759 -0.79176,0.72071 -1.22767,1.07358 -1.54027,1.24689 -2.062494,1.92708 -2.925109,3.8099 -0.624765,1.36368 -1.055591,2.60983 -1.215298,3.51523 -0.05955,0.33761 -0.135621,0.61384 -0.169041,0.61384 -0.03342,0 -0.05024,-0.33338 -0.03737,-0.74084 0.02282,-0.72265 0.157087,-1.28275 0.62267,-2.59751 0.178037,-0.50277 0.199264,-0.76951 0.02596,-0.3262 -0.104917,0.26837 -0.621187,1.68894 -0.782686,2.15365 -0.06081,0.17498 -0.151149,0.2927 -0.207905,0.27092 -0.108392,-0.0416 -0.294782,0.72014 -0.294782,1.20471 0,0.15134 -0.03705,0.28785 -0.08234,0.30338 -0.04529,0.0155 -0.10778,0.30305 -0.13887,0.63896 -0.101746,1.09929 0.204099,1.6968 1.005818,1.965 0.219652,0.0735 0.402531,0.17074 0.406398,0.21614 0.01115,0.13094 -0.10464,0.12525 -0.529101,-0.026 z m -0.25047,-4.84024 c 0,-0.08 -0.0269,-0.0644 -0.07277,0.0423 -0.04002,0.0931 -0.07277,0.22648 -0.07277,0.29633 0,0.0801 0.0269,0.0644 0.07277,-0.0423 0.04002,-0.0931 0.07277,-0.22648 0.07277,-0.29633 z m 1.438851,-2.45094 c 0.190147,-0.48654 0.331732,-0.8986 0.314635,-0.9157 -0.03208,-0.0321 -0.725585,1.69602 -0.725585,1.80803 0,0.13018 0.07485,-0.0324 0.41095,-0.89233 z M 35.480852,131.73831 c -0.31275,-0.47731 -1.69667,-2.56329 -3.07538,-4.6355 -3.34385,-5.02588 -4.09374,-6.2442 -5.10654,-8.29645 -1.18561,-2.40244 -2.0147,-4.38588 -3.78721,-9.06022 -1.96822,-5.19044 -3.04407,-10.106067 -3.45591,-15.790327 -0.25633,-3.53787 0.13788,-7.57686 1.04967,-10.75473 0.99537,-3.469167 2.17148,-6.079399 4.29439,-9.530914 1.3152,-2.138291 3.6013,-4.908372 5.77674,-6.999698 0.79454,-0.763817 0.89341,-0.889713 0.81449,-1.037167 -0.0494,-0.0923 -0.13085,-0.167825 -0.18099,-0.167825 -0.18882,0 -2.67434,2.475475 -3.86796,3.852333 -4.05281,4.674963 -7.09566,11.045274 -8.04793,16.848661 -0.33427,2.03711 -0.39066,2.83376 -0.38958,5.50334 0.001,2.79332 0.0996,4.1158 0.51616,6.93236 0.74626,5.045757 2.19764,9.908707 4.47393,14.990157 0.62277,1.39023 2.52306,5.21719 3.15685,6.35753 1.59367,2.8674 4.93349,8.03949 7.05185,10.92061 0.17119,0.23284 0.52675,0.71861 0.79014,1.0795 0.26338,0.36089 0.49622,0.65617 0.5174,0.65617 0.0212,0 -0.21736,-0.39053 -0.53012,-0.86783 z m -12.96457,-26.1905 c -1.59787,-6.888447 -2.05224,-14.573237 -1.14845,-19.423667 0.5254,-2.81975 1.87662,-6.579218 3.2837,-9.136199 1.98869,-3.613875 4.5198,-6.812068 7.63296,-9.644615 l 0.67358,-0.612867 -0.35346,-0.353456 -0.35346,-0.353456 -1.2805,1.266131 c -4.26604,4.218153 -7.39586,9.218825 -9.16505,14.643462 -0.90408,2.77206 -1.33705,5.21864 -1.49835,8.46667 -0.17786,3.58174 0.43489,8.9071 1.52639,13.265587 0.30806,1.23013 0.94337,3.38586 0.98544,3.34379 0.0162,-0.0162 -0.1201,-0.67378 -0.3028,-1.46138 z m 5.99039,-32.927998 c 0.76796,-0.960912 1.80169,-2.094604 3.10996,-3.410717 l 1.95965,-1.971385 -0.23876,-0.170009 -0.23875,-0.17001 -0.5409,0.57506 c -0.89857,0.955335 -2.45353,2.780187 -3.24619,3.809634 -0.17899,0.232461 -0.69066,0.895179 -1.13704,1.472708 -0.44637,0.577529 -0.95295,1.259602 -1.12572,1.515719 l -0.31412,0.465667 0.31078,-0.338667 c 0.17092,-0.186267 0.82841,-0.986367 1.46109,-1.778 z m 6.24406,-7.335236 c 0.0343,-0.0555 -0.10306,-0.251995 -0.32451,-0.464217 -0.31939,-0.306082 -0.40066,-0.347889 -0.48311,-0.248539 -0.0791,0.09535 -0.0363,0.188971 0.21235,0.464218 0.31644,0.350255 0.4881,0.42193 0.59527,0.248538 z M 181.39093,65.063312 c 0.17004,-0.174625 0.40843,-0.508 0.52975,-0.740833 0.25788,-0.494955 0.69939,-1.503722 0.67068,-1.532419 -0.0109,-0.01088 -0.19124,0.288914 -0.40079,0.66622 -0.20955,0.377306 -0.61797,0.934573 -0.90759,1.238372 -0.36412,0.38196 -0.49472,0.572602 -0.42333,0.617965 0.16475,0.104674 0.20495,0.08581 0.53128,-0.249305 z M 35.078502,64.963532 c 0.0267,-0.04324 -0.0377,-0.09086 -0.14317,-0.105834 -0.12855,-0.01825 -0.19483,-0.0881 -0.20108,-0.211929 -0.0131,-0.259333 -0.26803,-0.503141 -0.39418,-0.376987 -0.0719,0.07193 -0.0127,0.181899 0.23429,0.434823 0.34329,0.351554 0.42233,0.392305 0.50414,0.259927 z m 145.630398,-0.0061 c 0.0288,-0.04657 -0.0284,-0.08467 -0.127,-0.08467 -0.0986,0 -0.15578,0.0381 -0.127,0.08467 0.0288,0.04657 0.0859,0.08467 0.127,0.08467 0.0411,0 0.0982,-0.0381 0.127,-0.08467 z m 0.96181,-1.050929 c 0.61126,-0.886853 1.18328,-1.991294 1.37059,-2.646271 0.0909,-0.31786 0.16437,-0.597099 0.16328,-0.620531 -0.001,-0.02343 -0.22174,0.376498 -0.49032,0.888731 -0.70304,1.340824 -1.16381,2.106333 -1.56985,2.60806 -0.20773,0.25668 -0.34294,0.504808 -0.3246,0.595666 0.0292,0.14467 0.0458,0.142191 0.23436,-0.03493 0.11162,-0.10486 0.38906,-0.460686 0.61654,-0.790725 z M 33.887092,64.380697 c 0.0234,-0.03783 -0.027,-0.174798 -0.11204,-0.304374 -0.18807,-0.286696 -0.33564,-0.139643 -0.17016,0.169562 0.11215,0.209542 0.20778,0.255228 0.2822,0.134812 z m 0.42936,-0.263758 c 0.0267,-0.0432 -0.0445,-0.186071 -0.15813,-0.3175 -0.18468,-0.213534 -0.21292,-0.222859 -0.26547,-0.08764 -0.0367,0.09435 -0.002,0.213884 0.0916,0.3175 0.16538,0.182747 0.25811,0.207225 0.33202,0.08764 z m -1.0189,-0.827505 c -0.1593,-0.264546 -0.28964,-0.51816 -0.28964,-0.563586 0,-0.04543 -0.0199,-0.06268 -0.0443,-0.03833 -0.0742,0.07416 0.45988,1.184054 0.54455,1.131729 0.0434,-0.02685 -0.0514,-0.265265 -0.21065,-0.529811 z m 0.41517,-0.184922 c -0.12605,-0.214885 -0.49185,-0.886 -0.8129,-1.491366 -0.32104,-0.605367 -0.56072,-1.029087 -0.53262,-0.9416 0.0281,0.08749 0.0949,0.335138 0.14848,0.550334 0.1272,0.511043 0.19376,0.658622 0.73918,1.638748 0.3665,0.65861 0.48156,0.805112 0.57282,0.729367 0.0939,-0.07796 0.0735,-0.164145 -0.11496,-0.485483 z m 3.23219,-1.76019 c 0.99061,-0.665454 2.55152,-1.613478 3.38666,-2.056913 0.46567,-0.247254 1.07527,-0.573813 1.35467,-0.725687 0.70657,-0.384068 2.85533,-1.373598 4.23015,-1.948037 l 0.32079,-0.134032 -0.28458,-0.194996 c -0.25347,-0.17368 -0.29517,-0.180508 -0.38149,-0.06247 -0.19002,0.259867 -1.42825,-0.506701 -3.07985,-1.906674 l -0.38031,-0.32237 0.37279,0.444965 c 0.20504,0.244731 0.34675,0.471005 0.31492,0.502832 -0.12363,0.123634 -2.90519,-2.947259 -3.73436,-4.122797 -0.39165,-0.555261 -0.52648,-0.707503 -0.38723,-0.437249 0.20602,0.399845 0.009,0.266561 -0.31401,-0.212393 -1.05624,-1.566325 -2.67934,-4.593743 -3.35146,-6.251156 -0.64256,-1.584512 -1.26691,-3.884408 -1.5013,-5.530284 -0.0577,-0.404882 -0.0844,-1.205894 -0.0628,-1.882545 0.0207,-0.647789 0.0272,-1.167423 0.0145,-1.154741 -0.0955,0.09552 -0.83974,2.105617 -1.0785,2.91297 -0.61998,2.096424 -0.96094,4.004705 -1.27514,7.136731 -0.37495,3.73755 -0.41251,4.570102 -0.26193,5.805609 0.52764,4.329413 1.51367,8.068512 2.8844,10.937824 l 0.5362,1.122432 1.08491,-0.789885 c 0.5967,-0.434437 1.31351,-0.943449 1.59291,-1.131137 z m 12.784661,-3.298424 0.254,-0.117313 -0.28575,0.04311 c -0.15716,0.02371 -0.43338,0.04311 -0.61383,0.04311 -0.35369,0 -0.44968,0.134801 -0.13758,0.193204 0.22475,0.04206 0.43559,-0.0016 0.78316,-0.162118 z M 135.23308,161.65925 c -0.19167,-0.0898 -0.45837,-0.30743 -0.59267,-0.48354 -0.21568,-0.28283 -0.24295,-0.38516 -0.2337,-0.87704 0.008,-0.44987 0.11921,-0.87213 0.57643,-2.19768 0.65257,-1.89188 1.21812,-3.33422 1.87275,-4.77609 0.25374,-0.55888 0.46142,-1.02012 0.4615,-1.02496 8e-5,-0.005 -0.50475,0.003 -1.12183,0.0174 -1.24721,0.0291 -2.00698,-0.0711 -2.55412,-0.33697 -0.5003,-0.24307 -0.6422,-0.51542 -0.6422,-1.23255 0,-0.57966 0.004,-0.58943 0.35725,-0.91827 1.39875,-1.30139 1.99544,-2.04977 2.17961,-2.73371 0.11405,-0.42357 0.093,-0.50502 -0.38127,-1.47202 l -0.36325,-0.74069 -0.41437,0.52903 c -0.22789,0.29095 -0.75499,1.01735 -1.17133,1.61421 -2.03089,2.91147 -2.77164,3.88035 -3.28504,4.29673 -1.0479,0.84986 -1.66287,0.98586 -2.53075,0.55969 -0.88833,-0.43622 -1.6687,-1.27889 -2.04754,-2.21104 -0.10614,-0.26114 -0.21295,-0.49477 -0.23735,-0.51917 -0.0244,-0.0244 -0.19054,0.15745 -0.3692,0.40411 -0.17866,0.24667 -0.34515,0.46753 -0.36997,0.49081 -0.0248,0.0233 -0.25431,0.28999 -0.50998,0.59267 -1.21295,1.436 -1.6946,1.64855 -2.65046,1.16965 -1.14944,-0.57589 -1.71441,-1.68439 -1.69653,-3.32865 0.0118,-1.08703 0.1765,-1.7293 0.91552,-3.57081 0.25575,-0.6373 0.45601,-1.16734 0.445,-1.17787 -0.011,-0.0105 -0.19146,-0.0431 -0.40101,-0.0723 l -0.381,-0.0532 -0.51846,0.70143 c -0.28517,0.38578 -0.79084,1.111 -1.12373,1.61159 -0.33289,0.50059 -0.63655,0.91017 -0.67479,0.91017 -0.0383,0 -0.54001,0.67627 -1.11502,1.50283 -1.39184,2.00068 -1.66053,2.34703 -2.33036,3.00382 -0.65987,0.64703 -1.06464,0.81456 -1.61201,0.66716 -0.75446,-0.20316 -1.57852,-0.95396 -1.82213,-1.66014 -0.0802,-0.23261 -0.11459,-0.72826 -0.10969,-1.58273 l 0.007,-1.24405 -0.55033,0.73605 c -0.77723,1.03951 -1.5093,2.16829 -1.8082,2.78802 -0.54356,1.12706 -1.66177,1.53075 -2.65776,0.95948 -0.57601,-0.33039 -1.2768,-1.1128 -1.58452,-1.76905 -0.19822,-0.42276 -0.25997,-0.69066 -0.29309,-1.27141 -0.12233,-2.14561 1.26533,-5.61037 2.81263,-7.02266 1.04943,-0.95785 2.49488,-1.3272 3.89839,-0.99615 0.64822,0.1529 1.32376,0.43813 1.45889,0.61599 0.16022,0.21088 0.21286,0.0849 0.25791,-0.61711 0.049,-0.76298 0.13166,-0.83061 0.66781,-0.54618 0.61173,0.32452 1.86524,1.63898 2.01602,2.11404 0.0389,0.12259 -0.12553,0.58876 -0.53226,1.50891 -0.93639,2.11841 -1.27614,3.12866 -1.61969,4.81615 -0.29077,1.4282 -0.22757,1.68451 0.34489,1.39867 0.27289,-0.13624 0.8542,-0.9256 1.63219,-2.21631 0.94248,-1.56358 2.11927,-3.45057 2.23086,-3.57719 0.0718,-0.0815 0.27478,-0.38264 0.45099,-0.66918 l 0.3204,-0.52099 -0.19988,-0.15723 c -0.30655,-0.24113 -0.49418,-0.82577 -0.45203,-1.40851 0.0894,-1.23665 1.25452,-2.57198 2.41219,-2.76471 0.41323,-0.0688 1.30779,0.15041 1.4936,0.366 0.30313,0.35171 0.38481,1.01502 0.19163,1.55631 -0.11245,0.31509 -0.11162,0.31751 0.10955,0.31851 0.36466,0.002 1.10792,0.22846 1.39642,0.42614 0.14802,0.10144 0.38268,0.34209 0.52145,0.5348 0.23769,0.33007 0.25232,0.39703 0.25232,1.15472 0,0.9162 -0.1009,1.25082 -0.86809,2.87867 -1.21215,2.57197 -1.15738,2.41615 -1.1608,3.302 l -0.003,0.80433 0.22595,0.0261 c 0.3434,0.0397 0.6,-0.2573 1.94517,-2.25142 1.78727,-2.64951 1.81456,-2.69634 2.10707,-3.61671 0.44124,-1.38838 1.37716,-3.71223 2.37987,-5.90915 0.22939,-0.50261 0.39455,-0.95028 0.36701,-0.99483 -0.0275,-0.0446 -0.28699,-0.081 -0.57656,-0.081 -0.88552,0 -1.13814,-0.33215 -0.62768,-0.82527 0.37241,-0.35977 0.95538,-0.60996 1.42647,-0.6122 0.36753,-0.002 0.39726,-0.0196 0.53132,-0.31936 0.18524,-0.41419 0.61488,-1.91679 0.68858,-2.40821 0.0417,-0.27848 0.0204,-0.45669 -0.0773,-0.6456 -0.47361,-0.91586 0.31471,-1.33752 1.41954,-0.75928 0.61526,0.322 1.80933,1.46707 2.07453,1.98938 0.25451,0.50128 0.22882,0.7473 -0.16143,1.5459 -0.18833,0.38538 -0.32377,0.71933 -0.301,0.74211 0.10235,0.10234 2.85019,0.28076 5.08842,0.33039 4.09827,0.0909 6.86436,-0.24043 8.66839,-1.03826 0.57011,-0.25213 0.62442,-0.19935 0.57737,0.56107 -0.0796,1.28594 -0.76896,1.86853 -2.72643,2.30407 -1.49251,0.3321 -8.8079,0.29158 -11.51467,-0.0638 -0.51223,-0.0672 -0.95366,-0.12257 -0.98095,-0.12294 -0.0554,-8.5e-4 -0.50518,0.88602 -1.22348,2.41231 -0.85756,1.82219 -2.53497,5.95441 -3.11076,7.66322 -0.42792,1.26995 -0.44889,1.43367 -0.2368,1.84939 0.19627,0.38471 0.42363,0.48747 0.88642,0.40065 0.55985,-0.10503 0.82238,-0.38095 1.54037,-1.61902 0.3771,-0.65023 1.00594,-1.68394 1.39742,-2.29713 1.35147,-2.11685 1.54931,-2.44391 1.92424,-3.18112 0.3699,-0.72736 0.3745,-0.74659 0.26867,-1.12458 -0.12059,-0.4307 -0.0727,-1.15947 0.11116,-1.69141 0.10279,-0.29741 0.15257,-0.34174 0.40866,-0.36388 0.45609,-0.0394 1.60545,0.57715 2.2522,1.2082 0.61116,0.59631 0.65545,0.78679 0.26575,1.14272 l -0.26477,0.24184 0.69683,1.42556 c 1.44177,2.94955 1.57068,3.71265 0.90541,5.35968 l -0.20841,0.51597 0.29786,0.12446 c 0.16382,0.0684 0.30704,0.12445 0.31825,0.12445 0.0112,0 0.27047,-0.50482 0.57615,-1.12183 0.30568,-0.61701 0.90714,-1.71238 1.33657,-2.43417 0.42944,-0.72178 0.89568,-1.52188 1.0361,-1.778 0.14043,-0.25611 0.29667,-0.49365 0.34722,-0.52787 0.44099,-0.2985 1.17135,0.55208 1.1858,1.38099 0.005,0.30342 -0.0464,0.45724 -0.23861,0.70929 -0.7337,0.96235 -2.39571,3.56888 -2.8812,4.51858 -0.14076,0.27535 -0.13925,0.28729 0.0709,0.56281 0.11808,0.15482 0.31906,0.58067 0.44662,0.94635 0.2174,0.62319 0.232,0.75506 0.23298,2.10419 8.5e-4,1.22176 -0.0284,1.55735 -0.19378,2.22015 -0.56483,2.26375 -1.67404,4.0954 -2.84882,4.70431 -0.495,0.25656 -1.65024,0.29621 -2.12649,0.073 z m 1.02375,-2.15369 c 0.75489,-0.7549 1.33209,-1.97049 1.8979,-3.99709 0.40834,-1.46262 0.65003,-2.56236 0.57878,-2.63362 -0.0185,-0.0185 -0.3291,0.58549 -0.69014,1.3423 -0.36103,0.75679 -0.86721,1.79509 -1.12484,2.30732 -1.0128,2.01374 -1.56673,3.51367 -1.2976,3.51367 0.0568,0 0.34298,-0.23966 0.6359,-0.53258 z m -29.37279,-9.24535 c 0.15316,-0.16239 0.37724,-0.51099 0.49795,-0.77466 0.26014,-0.56823 1.84321,-3.2123 2.95855,-4.94141 0.90915,-1.40945 0.91102,-1.38707 -0.11582,-1.38389 -0.54664,0.002 -0.716,0.0414 -1.20758,0.28319 -0.70621,0.34734 -1.11679,0.75384 -1.58111,1.56536 -0.63872,1.11634 -1.08306,2.72395 -1.24401,4.50084 -0.0979,1.08093 0.13857,1.33741 0.69202,0.75057 z m 22.89787,9.72046 c -1.63395,-0.16749 -3.9553,-0.68353 -7.75205,-1.72333 -6.68119,-1.82974 -10.42382,-2.51056 -14.27558,-2.59685 -2.30954,-0.0517 -3.40927,0.0277 -4.98459,0.36022 -2.45594,0.51836 -4.158492,1.3774 -5.583862,2.81741 -0.395492,0.39956 -0.795542,0.7402 -0.889,0.75698 -0.794101,0.14259 -0.934325,0.12479 -1.317232,-0.16726 -0.448444,-0.34204 -0.692227,-0.68658 -0.923879,-1.30573 -0.29584,-0.7907 -0.241646,-1.25801 0.374795,-3.2319 0.998149,-3.19614 2.204212,-6.64672 3.223122,-9.22145 0.251968,-0.63671 0.449683,-1.16378 0.439364,-1.17127 -0.03743,-0.0272 -2.510134,0.13258 -3.984901,0.25742 -0.830945,0.0703 -1.541593,0.1279 -1.579217,0.1279 -0.03762,0 -0.105703,0.10477 -0.151284,0.23283 -0.328125,0.92184 -2.030476,4.31027 -2.62664,5.22817 -1.548802,2.38463 -3.283679,4.10518 -5.129461,5.08708 -1.385891,0.73725 -2.253845,0.96451 -3.918739,1.02604 -1.423182,0.0526 -2.369337,-0.0675 -3.625849,-0.46037 -2.2203,-0.69417 -3.955204,-2.15368 -4.406857,-3.70731 -0.200439,-0.68948 -0.13628,-1.84547 0.140521,-2.53183 0.111285,-0.27594 0.240436,-0.51295 0.287003,-0.52668 0.04657,-0.0137 0.197681,0.2311 0.33581,0.54406 0.444035,1.00604 1.311473,1.69881 2.641744,2.10979 0.406226,0.1255 0.779014,0.15141 2.102446,0.14617 1.451372,-0.006 1.688298,-0.0278 2.423065,-0.22514 2.699046,-0.72501 4.976955,-2.63631 6.671183,-5.59752 0.153777,-0.26877 0.263043,-0.50522 0.242816,-0.52545 -0.07012,-0.0701 -2.16272,0.55695 -3.122878,0.9358 -0.530669,0.20938 -1.064838,0.38077 -1.187042,0.38086 -0.567239,0 -1.765678,-0.64545 -2.595796,-1.39894 -0.759457,-0.68934 -0.972983,-1.19638 -0.632182,-1.50116 0.206881,-0.18502 1.616686,-0.66084 3.050466,-1.02958 1.369367,-0.35217 3.634125,-0.74911 5.141033,-0.90106 0.5588,-0.0563 1.060744,-0.14497 1.115432,-0.19694 0.05469,-0.052 0.365647,-0.79934 0.691021,-1.66082 1.23438,-3.26823 2.097202,-5.42395 2.524406,-6.3071 0.19805,-0.40943 0.537474,-1.58164 0.537474,-1.85618 0,-0.23278 -0.396219,-0.15345 -1.384519,0.27722 -3.79014,1.65158 -10.042749,3.33058 -14.392941,3.86491 -1.422166,0.17469 -3.524795,0.17595 -4.42486,0.003 -2.385149,-0.45922 -4.146209,-1.62947 -4.926689,-3.27385 -0.40203,-0.84702 -0.50923,-1.26497 -0.57993,-2.26106 -0.0633,-0.89224 0.0285,-1.02272 0.34262,-0.48673 0.30957,0.52824 0.82079,0.93738 1.70199,1.36214 1.32221,0.63734 3.160839,0.96569 5.435494,0.97068 1.756975,0.004 4.256523,-0.3618 10.07138,-1.47336 6.112899,-1.16853 7.912444,-1.48604 8.42647,-1.48677 0.451744,-8.5e-4 1.273617,0.38499 1.924318,0.9029 0.960928,0.76484 1.878508,1.89115 2.047324,2.51304 0.0847,0.31204 0.0611,0.37992 -0.54465,1.56634 -0.603337,1.18169 -1.499665,3.31598 -2.475692,5.89498 -0.246342,0.65092 -0.440712,1.18991 -0.431937,1.19775 0.0088,0.008 1.254206,-0.007 2.767622,-0.0326 l 2.751667,-0.0469 0.499077,-1.10852 c 0.547854,-1.21685 2.135254,-4.35785 2.742464,-5.42652 1.93889,-3.41238 4.19622,-6.56276 6.12573,-8.54922 0.36072,-0.37136 0.64442,-0.68664 0.63045,-0.70061 -0.0289,-0.0289 -0.21122,-0.0749 -4.45205,-1.12481 -8.583848,-2.12505 -16.481884,-3.95898 -19.812004,-4.60035 -2.737186,-0.52718 -6.743327,-1.15401 -7.375383,-1.15401 -0.129911,0 -0.269402,-0.0593 -0.309981,-0.13183 -0.05976,-0.10679 -0.134017,-0.0545 -0.390738,0.27516 -0.627494,0.80576 -2.175068,2.31741 -3.311563,3.2347 -2.588128,2.08893 -4.867178,3.06725 -7.457298,3.2012 -2.93863,0.15197 -5.37968,-1.09173 -6.43238,-3.27723 -0.91157,-1.8925 -0.0711,-4.27012 1.94039,-5.48898 1.92031,-1.16363 5.41406,-1.93114 9.55614,-2.09928 1.109735,-0.0451 1.450294,-0.0342 1.500963,0.0478 0.0816,0.13204 1.349287,-2.41632 1.913794,-3.84718 0.460351,-1.16685 1.560584,-4.4133 2.022914,-5.969 0.249607,-0.8399 1.132556,-3.59859 1.288724,-4.02649 0.01796,-0.0492 -0.187668,-0.1574 -0.45696,-0.2404 -0.799972,-0.24656 -2.468874,-1.096167 -3.254791,-1.656947 -0.853823,-0.60924 -2.364384,-2.12663 -3.067334,-3.08119 -1.43631,-1.95044 -2.79613,-4.93518 -3.02252,-6.63432 -0.27354,-2.053 0.45519,-4.78639 1.72189,-6.45865 1.19749,-1.580867 3.055643,-2.824157 4.756279,-3.182417 1.904402,-0.401186 3.571196,-0.165824 6.709295,0.9474 0.737124,0.26149 1.464051,0.51871 1.615393,0.57161 0.151341,0.0529 0.272311,0.11543 0.268821,0.13896 -0.0035,0.0235 -0.470158,0.27139 -1.037042,0.55079 -2.824231,1.391977 -4.372559,2.289267 -5.75436,3.334767 -2.57384,1.94742 -3.826935,3.90453 -3.665313,5.72456 0.0597,0.67227 0.382144,1.93156 0.652615,2.54875 0.804825,1.83655 2.515731,3.27109 4.585244,3.84458 0.941124,0.2608 0.91611,0.27187 1.197537,-0.53016 1.452464,-4.13936 3.424301,-8.67327 4.832919,-11.1125 2.513499,-4.352497 4.358044,-6.514601 6.37937,-7.477659 0.527834,-0.251486 0.716599,-0.29763 1.236199,-0.302195 0.541955,-0.0048 0.686061,0.03075 1.239708,0.305458 1.245746,0.618122 2.294041,1.979229 3.2573,4.229266 0.333932,0.78002 0.58724,1.90247 0.757164,3.3551 0.522544,4.46709 -0.808481,8.66084 -3.649043,11.49728 -1.974516,1.97165 -4.386747,3.195377 -7.502746,3.806157 -0.714332,0.14002 -0.738151,0.1523 -0.792719,0.4088 -0.08673,0.40769 -0.855319,3.09937 -1.235953,4.32845 -0.840166,2.71293 -1.750906,5.1046 -2.543458,6.6793 -0.190091,0.37769 -0.473885,0.98603 -0.630653,1.35186 -0.156767,0.36584 -0.360945,0.77177 -0.453727,0.90208 -0.09278,0.1303 -0.168696,0.26923 -0.168696,0.30873 0,0.0395 0.676275,0.16023 1.502833,0.26827 2.387935,0.31212 5.800361,0.89812 9.228734,1.58479 2.870749,0.57499 4.471801,0.90583 10.265766,2.12133 2.49767,0.52398 8.36709,1.72731 8.42519,1.72731 0.026,0 -0.0848,-0.11608 -0.24641,-0.25794 -0.72987,-0.64084 -0.72553,-1.42464 0.0204,-3.67906 0.79231,-2.39469 2.3783,-6.40776 3.06216,-7.74825 l 0.15246,-0.29884 -1.41005,0.0318 c -1.00303,0.0226 -1.62277,-0.005 -2.147,-0.096 -0.82525,-0.14305 -1.61264,-0.47581 -1.79788,-0.7598 -0.20006,-0.30672 -0.31432,-0.98715 -0.2512,-1.49584 0.0518,-0.41719 0.10729,-0.52054 0.49087,-0.91367 0.23788,-0.24379 0.4706,-0.44468 0.51717,-0.4464 0.26166,-0.01 1.75714,-1.79793 2.0874,-2.49602 0.37662,-0.79608 0.34081,-1.20573 -0.19423,-2.22224 -0.23934,-0.454697 -0.46009,-0.918007 -0.49056,-1.029567 -0.0512,-0.1875 -0.0951,-0.15308 -0.58084,0.45542 -0.28899,0.362037 -0.52544,0.695587 -0.52544,0.741217 0,0.0456 -0.24145,0.4122 -0.53656,0.81459 -0.2951,0.40238 -1.06173,1.51265 -1.70363,2.46727 -1.17185,1.74279 -1.67566,2.44719 -2.0886,2.92019 -0.12236,0.14014 -0.39133,0.46436 -0.59773,0.72047 -1.00505,1.24713 -1.91423,1.29665 -3.558027,0.19378 -0.68836,-0.46184 -1.360808,-1.17857 -1.605682,-1.71143 -0.15495,-0.33717 -0.168312,-0.49808 -0.133572,-1.60867 0.03204,-1.02418 0.07764,-1.36358 0.268177,-1.99601 0.267855,-0.88905 0.88631,-2.529517 1.739592,-4.614327 0.800112,-1.95491 0.925722,-2.3628 1.047282,-3.40078 0.0959,-0.81871 0.11523,-0.87671 0.30126,-0.90325 0.62015,-0.0885 2.71882,2.12839 2.71882,2.87195 0,0.0788 -0.14759,0.44283 -0.32797,0.80888 -0.91813,1.86306 -2.06835,5.205417 -2.458,7.142527 -0.15032,0.7473 -0.26172,1.76495 -0.20842,1.90387 0.0984,0.25654 0.52697,0.14915 0.92459,-0.2317 0.33781,-0.32357 2.69752,-4.1015 3.5564,-5.69384 0.1507,-0.279397 0.52752,-0.927097 0.83738,-1.439327 0.30985,-0.51223 0.73633,-1.28637 0.94773,-1.72029 l 0.38436,-0.78896 -0.14485,-0.59108 c -0.15268,-0.623 -0.13989,-0.85518 0.10274,-1.86593 0.17655,-0.73548 0.34096,-0.84074 0.99243,-0.63538 0.56288,0.17743 1.30281,0.56784 1.86916,0.98623 0.55467,0.40977 1.31379,1.24081 1.31379,1.43828 0,0.19312 -0.44663,0.67946 -0.62398,0.67946 -0.17252,0 -0.18069,-0.0206 0.77263,1.94734 1.42197,2.935377 1.76957,3.980837 1.68851,5.078477 -0.0482,0.65279 -0.25419,1.37988 -0.60867,2.14845 -0.13857,0.30045 -0.16982,0.44503 -0.10082,0.46648 0.055,0.0171 0.2618,0.10063 0.45957,0.18563 l 0.35957,0.15454 0.1879,-0.43962 c 0.38064,-0.89056 1.0146,-2.12999 1.60301,-3.13395 1.5661,-2.67214 2.33172,-3.938317 2.57573,-4.259757 0.14617,-0.19255 0.46571,-0.75546 0.7101,-1.25092 l 0.44433,-0.90083 -0.14576,-0.59478 c -0.15364,-0.62697 -0.14108,-0.85774 0.10183,-1.86965 0.17655,-0.73548 0.34096,-0.84074 0.99243,-0.63538 0.56288,0.17743 1.30281,0.56784 1.86916,0.98623 0.55468,0.40977 1.31379,1.24081 1.31379,1.43828 0,0.19312 -0.44663,0.67946 -0.62398,0.67946 -0.17251,0 -0.18069,-0.0206 0.77263,1.94734 1.42198,2.935377 1.76957,3.980837 1.68851,5.078477 -0.0482,0.65279 -0.25419,1.37988 -0.60866,2.14845 -0.13858,0.30045 -0.16983,0.44503 -0.10082,0.46648 0.055,0.0171 0.26179,0.10063 0.45957,0.18563 l 0.35957,0.15454 0.1879,-0.43962 c 0.58853,-1.37698 0.99248,-2.1148 3.161,-5.77363 1.46551,-2.472677 1.99052,-4.231927 1.80346,-6.043137 -0.0239,-0.2313 0.0146,-0.31903 0.202,-0.46004 0.53982,-0.40629 2.42974,-0.10047 3.0843,0.4991 l 0.30723,0.2814 -0.0492,0.87168 c -0.0847,1.50059 -0.38666,2.33831 -2.49653,6.925327 -1.27316,2.76793 -1.289,2.81152 -1.289,3.54657 0,0.69969 0.0733,0.8561 0.40109,0.8561 0.3417,0 0.86963,-0.65679 1.44072,-1.79241 0.29122,-0.57907 0.97293,-1.73665 1.51491,-2.57239 3.41133,-5.260297 3.5065,-5.410987 3.98127,-6.303197 0.18585,-0.34925 0.38461,-0.82227 0.4417,-1.05115 0.17735,-0.71107 0.62234,-1.65818 0.77908,-1.65818 0.35534,0 0.90866,0.35964 1.69339,1.10066 0.31174,0.29438 0.86312,1.12087 1.01574,1.52256 l 0.16444,0.43276 -0.36576,0.60984 c -0.47737,0.7959 -0.72345,1.37428 -1.41219,3.319177 -0.31333,0.88476 -0.83698,2.33256 -1.16367,3.21733 -0.85612,2.31862 -0.85877,2.26139 0.0629,1.35467 1.71868,-1.69085 2.8877,-3.27691 3.88222,-5.267117 0.4916,-0.98379 0.68544,-1.04615 1.34664,-0.43319 0.42698,0.39581 0.70967,0.9761 0.70967,1.456747 0,0.30928 -0.0636,0.45737 -0.37328,0.86886 -0.20531,0.27282 -0.52713,0.70558 -0.71516,0.9617 -0.18802,0.25611 -0.6774,0.92286 -1.08752,1.48166 -0.66515,0.90631 -2.53257,2.89594 -3.30176,3.51786 -0.5941,0.48035 -1.75503,1.25433 -2.45272,1.63521 l -0.42334,0.2311 -0.62326,1.58358 c -1.15695,2.93956 -1.74603,3.98472 -3.00321,5.32832 -1.00898,1.07835 -1.9823,1.51253 -3.2413,1.4459 -0.80917,-0.0428 -1.33539,-0.27185 -1.84112,-0.80136 -0.19274,-0.20181 -0.37384,-0.36708 -0.40243,-0.36727 -0.0286,0 -0.11994,0.18064 -0.20298,0.40183 -0.65812,1.7532 -1.97052,3.47386 -3.05788,4.00912 -0.55661,0.274 -1.96553,0.33813 -2.54729,0.11595 -0.87707,-0.33496 -1.26956,-0.98713 -1.18421,-1.96774 0.0528,-0.60665 0.70152,-2.67293 1.52135,-4.84571 0.46268,-1.22625 1.80627,-4.43112 2.09463,-4.99637 l 0.15246,-0.29884 -1.41004,0.0318 c -1.00304,0.0226 -1.62278,-0.005 -2.14701,-0.096 -0.82525,-0.14305 -1.61264,-0.47581 -1.79788,-0.7598 -0.20005,-0.30672 -0.31432,-0.98715 -0.2512,-1.49584 0.0518,-0.41719 0.1073,-0.52054 0.49087,-0.91367 0.23788,-0.24379 0.4706,-0.44468 0.51717,-0.4464 0.26166,-0.01 1.75715,-1.79793 2.08741,-2.49602 0.37661,-0.79608 0.3408,-1.20573 -0.19424,-2.22224 -0.23933,-0.454697 -0.4601,-0.918057 -0.49059,-1.029667 -0.0508,-0.18612 -0.10516,-0.14054 -0.65584,0.55033 -1.45444,1.824727 -4.93774,7.153657 -4.93774,7.554027 0,0.0454 0.13041,0.27634 0.28981,0.5132 0.60656,0.90136 0.89574,2.15934 0.89518,3.8943 -0.001,3.12165 -1.27851,6.51558 -3.09062,8.21071 -0.66166,0.61896 -1.18278,0.87619 -1.90015,0.93795 l -0.55455,0.0477 0.67733,0.14609 c 2.15445,0.46467 7.79667,1.45779 10.668,1.87774 6.54873,0.95778 10.78316,1.29458 15.19767,1.20879 5.34894,-0.10395 8.98488,-0.78875 11.96267,-2.25312 1.77152,-0.87116 2.97498,-1.77838 3.9589,-2.98441 0.25379,-0.31107 0.50608,-0.56824 0.56066,-0.5715 0.13218,-0.008 0.67731,0.63114 0.88922,1.04238 0.30371,0.58938 0.41852,1.09479 0.46794,2.05991 0.0651,1.27175 -0.10481,2.11601 -0.69755,3.46568 -0.27131,0.61777 -0.97162,1.62825 -1.39113,2.00725 -0.81309,0.73458 -2.6068,1.73942 -4.09023,2.29136 -3.81681,1.42014 -9.05658,1.78999 -15.63982,1.10396 -4.41524,-0.46012 -10.97273,-1.61203 -17.48366,-3.07126 l -2.20134,-0.49336 -0.22118,0.17558 c -2.14934,1.70619 -3.33406,2.83245 -4.69402,4.46237 -1.44923,1.73691 -2.40519,3.0825 -3.5749,5.03191 -0.83816,1.39691 -2.64356,4.83217 -2.64356,5.03012 0,0.0257 0.0857,0.0843 0.1905,0.1303 0.62126,0.27256 0.65745,2.07119 0.0467,2.32235 -0.10719,0.0441 -0.48659,0.10423 -0.84311,0.13366 l -0.64821,0.0535 -0.68065,1.70802 c -1.080612,2.71171 -1.686612,4.37975 -2.525956,6.95279 -0.257416,0.78912 -0.488781,1.48884 -0.514143,1.55494 -0.05609,0.14618 -0.06613,0.14895 1.642645,-0.45378 3.195454,-1.12712 6.214854,-1.56038 9.683154,-1.38946 3.12569,0.15405 5.63299,0.55852 11.21737,1.80957 5.7563,1.28956 6.48061,1.41296 8.59367,1.46403 1.51052,0.0365 1.84086,0.0201 2.54663,-0.12616 1.00218,-0.20776 1.68409,-0.53074 2.23376,-1.05801 l 0.42196,-0.40476 0.14987,0.1931 c 0.71787,0.92494 0.95167,2.5288 0.53669,3.68174 -0.47137,1.30966 -1.69361,1.91 -3.81458,1.87365 -0.4191,-0.007 -0.89535,-0.0267 -1.05833,-0.0434 z m -64.304337,-38.7278 c 1.3045,-0.1577 1.65561,-0.32351 3.21019,-1.51606 0.0911,-0.0699 0.33947,-0.28805 0.55202,-0.48487 0.46266,-0.42844 0.43518,-0.43475 -0.85816,-0.19713 -2.14461,0.39402 -2.82102,0.63552 -4.47038,1.59604 -1.28789,0.75002 -1.27457,0.69466 -0.16701,0.69439 0.53424,0 1.31424,-0.0417 1.73334,-0.0924 z m 45.169667,-2.81355 c 0.63155,-0.49646 1.08478,-1.10864 1.64074,-2.21618 0.51609,-1.02812 0.79764,-1.83264 1.35782,-3.87986 0.43933,-1.60563 0.58667,-2.31806 0.53825,-2.60267 -0.0266,-0.1564 -0.22468,0.18201 -0.82091,1.40253 -0.43221,0.88477 -1.16316,2.37697 -1.62434,3.316 -1.24904,2.54325 -1.92624,4.34649 -1.63223,4.34628 0.0412,-3e-5 0.28455,-0.16478 0.54067,-0.3661 z m 11.59933,0 c 0.63156,-0.49646 1.08478,-1.10864 1.64074,-2.21618 0.5161,-1.02812 0.79765,-1.83264 1.35782,-3.87986 0.43933,-1.60563 0.58667,-2.31806 0.53825,-2.60267 -0.0266,-0.1564 -0.22468,0.18201 -0.82091,1.40253 -0.43221,0.88477 -1.16316,2.37697 -1.62434,3.316 -1.24904,2.54325 -1.92623,4.34649 -1.63223,4.34628 0.0413,-3e-5 0.28456,-0.16478 0.54067,-0.3661 z m 6.29872,-3.44001 c 0.21235,-0.091 0.58699,-0.2943 0.83252,-0.45172 0.61617,-0.39507 1.97945,-1.71343 2.41911,-2.33942 l 0.36401,-0.51827 -0.44867,0.27389 c -0.9723,0.59353 -2.74583,1.96229 -3.51418,2.71215 -0.51169,0.49937 -0.37038,0.63096 0.34721,0.32337 z m 0.0743,-3.80148 c 0.56974,-0.44402 1.27127,-0.86079 3.70677,-2.20216 l 1.57074,-0.8651 0.30734,-0.77972 c 0.36487,-0.92569 1.5891,-4.57394 1.5882,-4.7329 0,-0.061 -0.17179,0.18885 -0.381,0.5551 -0.2092,0.36625 -0.38037,0.67639 -0.38037,0.6892 0,0.0128 -0.31229,0.55135 -0.69398,1.19676 -0.38169,0.6454 -0.84686,1.47771 -1.03372,1.84958 -0.57087,1.13608 -1.4644,1.82163 -2.37409,1.82148 -0.91905,-1.7e-4 -2.11664,-0.8562 -2.93104,-2.09517 l -0.40332,-0.61358 -0.38825,0.67313 c -0.21355,0.37023 -0.38827,0.70918 -0.38827,0.75324 0,0.044 0.13041,0.27389 0.28981,0.51074 0.15938,0.23686 0.36903,0.64244 0.46589,0.90129 0.20902,0.55867 0.42964,1.75861 0.42964,2.33684 0,0.22674 0.0199,0.41225 0.0441,0.41225 0.0243,0 0.28146,-0.18494 0.5715,-0.41098 z M 87.209235,95.373073 c 3.310587,-2.1821 5.463365,-5.48762 6.261496,-9.61433 0.235259,-1.2164 0.264177,-2.69546 0.0599,-3.0636 -0.164455,-0.29638 -0.617038,-0.73834 -0.911214,-0.889837 -0.11302,-0.0582 -0.408864,-0.104 -0.657431,-0.10177 -0.629701,0.006 -1.157432,0.275447 -1.417313,0.724567 -0.461468,0.79751 -1.926289,5.21034 -2.589962,7.80237 -0.03577,0.1397 -0.204503,0.76835 -0.374963,1.397 -0.405937,1.49708 -1.062506,3.98763 -1.062506,4.03038 0,0.10465 0.269314,-0.006 0.691995,-0.28478 z m 16.199415,-1.88905 c -0.48729,-0.24303 -1.01918,-0.79932 -1.24093,-1.29785 -0.36567,-0.82209 -0.22306,-2.30542 0.326,-3.39083 0.24242,-0.47923 0.34674,-0.55181 0.64414,-0.44813 0.5413,0.18869 1.8711,1.7082 2.20907,2.5242 0.11841,0.28591 0.11058,0.3458 -0.14475,1.10649 -0.34353,1.02347 -0.8143,1.68321 -1.1975,1.6782 -0.14178,-0.002 -0.40999,-0.0793 -0.59603,-0.17208 z"
       id="path849"
       inkscape:export-xdpi="300"
       inkscape:export-ydpi="300" />
  </g>
</svg>
